<svg width="20" height="20" viewBox="0 0 20 20" fill="none" xmlns="http://www.w3.org/2000/svg">
<path fill-rule="evenodd" clip-rule="evenodd" d="M18.1714 6.875V16.875C18.1714 17.3725 17.9741 17.8494 17.6222 18.2006C17.2703 18.5525 16.7934 18.75 16.2959 18.75H6.29287C5.7954 18.75 5.31847 18.5525 4.96658 18.2006C4.61469 17.8494 4.41732 17.3725 4.41732 16.875V12.4175C4.72187 12.4719 5.03536 12.5 5.3551 12.5C8.28813 12.5 10.6692 10.1194 10.6692 7.1875C10.6692 4.25563 8.28813 1.875 5.3551 1.875C5.19345 1.875 5.03357 1.8825 4.87638 1.89625C5.22023 1.50062 5.72753 1.25 6.29287 1.25H12.5447V5C12.5447 5.4975 12.7421 5.97438 13.094 6.32563C13.4459 6.6775 13.9228 6.875 14.4203 6.875H18.1714ZM8.16844 15.625V15C8.16844 14.655 7.888 14.375 7.54326 14.375C7.19851 14.375 6.91807 14.655 6.91807 15V15.625C6.91807 15.97 7.19851 16.25 7.54326 16.25C7.888 16.25 8.16844 15.97 8.16844 15.625ZM10.6692 15.625V13.125C10.6692 12.78 10.3888 12.5 10.044 12.5C9.69926 12.5 9.41881 12.78 9.41881 13.125V15.625C9.41881 15.97 9.69926 16.25 10.044 16.25C10.3888 16.25 10.6692 15.97 10.6692 15.625ZM13.1699 15.625V13.75C13.1699 13.405 12.8895 13.125 12.5447 13.125C12.2 13.125 11.9196 13.405 11.9196 13.75V15.625C11.9196 15.97 12.2 16.25 12.5447 16.25C12.8895 16.25 13.1699 15.97 13.1699 15.625ZM15.6707 15.625V11.25C15.6707 10.905 15.3902 10.625 15.0455 10.625C14.7008 10.625 14.4203 10.905 14.4203 11.25V15.625C14.4203 15.97 14.7008 16.25 15.0455 16.25C15.3902 16.25 15.6707 15.97 15.6707 15.625ZM13.7951 1.26187C14.2444 1.31312 14.6632 1.52563 14.9705 1.86375L17.6838 4.84687C17.8865 5.07062 18.0312 5.3375 18.108 5.625H14.4203C14.2542 5.625 14.0952 5.55938 13.9782 5.44188C13.8612 5.325 13.7951 5.16563 13.7951 5V1.26187ZM9.37058 7.8125C9.0696 9.75813 7.38518 11.25 5.3551 11.25C3.11247 11.25 1.29138 9.42937 1.29138 7.1875C1.29138 5.15812 2.78379 3.47375 4.7299 3.17313V6.5625C4.7299 7.25313 5.2899 7.8125 5.98029 7.8125H9.37058ZM5.98029 3.17313C7.72277 3.4425 9.10175 4.82063 9.37058 6.5625H5.98029V3.17313Z" fill="white"/>
</svg>
